<svg xmlns="http://www.w3.org/2000/svg" viewBox="0 0 148 123"><title>Recurso 2</title><g id="Capa_2" data-name="Capa 2"><g id="Capa_2-2" data-name="Capa 2"><rect x="0.5" y="0.5" width="147" height="122" style="fill:#f4f4f4;opacity:0.32"/><rect x="0.5" y="0.5" width="147" height="122" style="fill:none;stroke:#1d1d1b;stroke-miterlimit:10"/><path d="M13.658,30.811V55.246H11.192V30.811H8.453V28.345h2.739V21.058a7.824,7.824,0,0,1,2.329-5.232A7.389,7.389,0,0,1,18.7,13.744a10.071,10.071,0,0,1,3.233.576l-.767,2.191a5.636,5.636,0,0,0-2.219-.493,5.4,5.4,0,0,0-3.671,1.561,5.218,5.218,0,0,0-1.616,3.644v7.122h5.479v2.466Z" style="fill:#1d1d1b"/><path d="M35.518,55.629a10.846,10.846,0,0,1-8.027-2.986,10.5,10.5,0,0,1-3.068-7.533V28.345h2.466V44.89a7.818,7.818,0,0,0,2.493,5.836,8.342,8.342,0,0,0,6.108,2.437,8.121,8.121,0,0,0,5.876-2.424,7.88,7.88,0,0,0,2.479-5.849V28.345h2.466V45.11A10.353,10.353,0,0,1,35.518,55.629Z" style="fill:#1d1d1b"/><path d="M56.994,11.416v43.83H54.529V11.416Z" style="fill:#1d1d1b"/><path d="M67.678,11.416v43.83H65.212V11.416Z" style="fill:#1d1d1b"/><path d="M10.918,72.436v20.9H8.453v-26.9h2.465v1.726a10.793,10.793,0,0,1,7.835-3.342,10.355,10.355,0,0,1,10.82,10.519v18H27.108V75.558a7.885,7.885,0,0,0-2.479-5.848,8.122,8.122,0,0,0-5.876-2.424,8.142,8.142,0,0,0-5.862,2.383A9.25,9.25,0,0,0,10.918,72.436Z" style="fill:#1d1d1b"/><path d="M51.187,64A15.035,15.035,0,0,1,66.226,79.065,15.036,15.036,0,0,1,51.187,94.1,15.05,15.05,0,0,1,40.558,68.409,14.487,14.487,0,0,1,51.187,64Zm-8.794,6.272a12.417,12.417,0,0,0,8.794,21.2,12.417,12.417,0,0,0,8.793-21.2,12.434,12.434,0,0,0-17.587,0Z" style="fill:#1d1d1b"/><path d="M75.814,66.436v26.9H73.349v-26.9Z" style="fill:#1d1d1b"/><path d="M91.975,79.5a19.91,19.91,0,0,1-4.355-2.9,6.2,6.2,0,0,1-1.89-4.548,6.277,6.277,0,0,1,1.89-4.588,6.178,6.178,0,0,1,4.547-1.9,6.014,6.014,0,0,1,4.438,1.753,5.441,5.441,0,0,1,1.7,3.917v.137l-2.136.85a5.313,5.313,0,0,0-1.3-3.123,3.622,3.622,0,0,0-2.7-1.042,3.99,3.99,0,0,0-2.821,6.821,19.085,19.085,0,0,0,2.9,2.082,22.9,22.9,0,0,1,4.985,3.4,7.985,7.985,0,1,1-11.286,11.3,7.167,7.167,0,0,1-2.329-5.136l2.439-.63a5.438,5.438,0,0,0,1.63,4.027,5.535,5.535,0,0,0,7.82-7.835A23.864,23.864,0,0,0,91.975,79.5Z" style="fill:#1d1d1b"/><path d="M111.671,88.3a11.85,11.85,0,0,0,8.274,3.178,11.982,11.982,0,0,0,8.793-3.643q.465-.467.876-.959l2.6.931a15.355,15.355,0,0,1-1.616,1.89,15.05,15.05,0,1,1-21.284-21.284A15.1,15.1,0,0,1,129.285,67.2q.658.548,1.315,1.205.247.246.466.493L129.2,70.764Zm15.724-19.2A12.429,12.429,0,0,0,110,86.488Z" style="fill:#1d1d1b"/><text transform="translate(5.765 108.525)" style="font-size:15.868659973144531px;fill:#1d1d1b;font-family:CaviarDreams, Caviar Dreams">Casa p<tspan x="55.47" y="0" style="letter-spacing:-0.009754141591788598em">r</tspan><tspan x="59.957" y="0">oductora</tspan></text></g></g></svg>